<svg version="1.2" xmlns="http://www.w3.org/2000/svg" viewBox="0 0 48 48" width="48" height="48">
	<style>
		.s0 { opacity: 1;fill: #000000 } 
		.s1 { opacity: .36;fill: #000000 } 
		.s2 { opacity: .78;fill: #000000 } 
		.s3 { opacity: .58;fill: #000000 } 
		.s4 { opacity: 1;fill: #b8b8b8 } 
		.s5 { opacity: 1;fill: #575757 } 
		.s6 { opacity: 1;fill: #4c4c4c } 
		.s7 { opacity: 1;fill: #434343 } 
		.s8 { opacity: 1;fill: #666666 } 
		.s9 { opacity: 1;fill: #818181 } 
		.s10 { opacity: 1;fill: #787878 } 
		.s11 { opacity: 1;fill: #6f6f6f } 
		.s12 { opacity: 1;fill: #a3a3a3 } 
		.s13 { opacity: 1;fill: #373737 } 
		.s14 { opacity: 1;fill: #949494 } 
		.s15 { opacity: 1;fill: #adadad } 
		.s16 { opacity: 1;fill: #898989 } 
		.s17 { opacity: 1;fill: #2a2a2a } 
		.s18 { opacity: 1;fill: #1e1e1e } 
	</style>
	<g id="Background">
		<path id="Path 0" class="s0" d="m2 2c-1.87 1.87-2 3.33-2 22 0 18.67 0.13 20.13 2 22 1.87 1.87 3.33 2 22 2 18.67 0 20.13-0.13 22-2 1.87-1.87 2-3.33 2-22 0-18.67-0.13-20.13-2-22-1.87-1.87-3.33-2-22-2-18.67 0-20.13 0.13-22 2z"/>
		<path id="Path 1" class="s1" d="m2 0.5c0 0.27 0.23 0.5 0.5 0.5 0.27 0 0.5-0.23 0.5-0.5 0-0.27-0.23-0.5-0.5-0.5-0.27 0-0.5 0.23-0.5 0.5zm43 0c0 0.27 0.23 0.5 0.5 0.5 0.27 0 0.5-0.23 0.5-0.5 0-0.27-0.23-0.5-0.5-0.5-0.27 0-0.5 0.23-0.5 0.5zm-45 2c0 0.27 0.23 0.5 0.5 0.5 0.27 0 0.5-0.23 0.5-0.5 0-0.27-0.23-0.5-0.5-0.5-0.27 0-0.5 0.23-0.5 0.5zm47 0c0 0.27 0.23 0.5 0.5 0.5 0.27 0 0.5-0.23 0.5-0.5 0-0.27-0.23-0.5-0.5-0.5-0.27 0-0.5 0.23-0.5 0.5zm-47 43c0 0.27 0.23 0.5 0.5 0.5 0.27 0 0.5-0.23 0.5-0.5 0-0.27-0.23-0.5-0.5-0.5-0.27 0-0.5 0.23-0.5 0.5zm47 0c0 0.27 0.23 0.5 0.5 0.5 0.27 0 0.5-0.23 0.5-0.5 0-0.27-0.23-0.5-0.5-0.5-0.27 0-0.5 0.23-0.5 0.5zm-45 2c0 0.27 0.23 0.5 0.5 0.5 0.27 0 0.5-0.23 0.5-0.5 0-0.27-0.23-0.5-0.5-0.5-0.27 0-0.5 0.23-0.5 0.5zm43 0c0 0.27 0.23 0.5 0.5 0.5 0.27 0 0.5-0.23 0.5-0.5 0-0.27-0.23-0.5-0.5-0.5-0.27 0-0.5 0.23-0.5 0.5z"/>
		<path id="Path 2" class="s2" d="m3 0.5c0 0.27 0.22 0.5 0.5 0.5 0.28 0 0.5-0.23 0.5-0.5 0-0.27-0.22-0.5-0.5-0.5-0.28 0-0.5 0.23-0.5 0.5zm41 0c0 0.27 0.23 0.5 0.5 0.5 0.27 0 0.5-0.23 0.5-0.5 0-0.27-0.23-0.5-0.5-0.5-0.27 0-0.5 0.23-0.5 0.5zm-44 3c0 0.28 0.23 0.5 0.5 0.5 0.27 0 0.5-0.22 0.5-0.5 0-0.28-0.23-0.5-0.5-0.5-0.27 0-0.5 0.22-0.5 0.5zm47 0c0 0.28 0.23 0.5 0.5 0.5 0.27 0 0.5-0.22 0.5-0.5 0-0.28-0.23-0.5-0.5-0.5-0.27 0-0.5 0.22-0.5 0.5zm-47 41c0 0.27 0.23 0.5 0.5 0.5 0.27 0 0.5-0.23 0.5-0.5 0-0.27-0.23-0.5-0.5-0.5-0.27 0-0.5 0.23-0.5 0.5zm47 0c0 0.27 0.23 0.5 0.5 0.5 0.27 0 0.5-0.23 0.5-0.5 0-0.27-0.23-0.5-0.5-0.5-0.27 0-0.5 0.23-0.5 0.5zm-44 3c0 0.27 0.22 0.5 0.5 0.5 0.28 0 0.5-0.23 0.5-0.5 0-0.27-0.22-0.5-0.5-0.5-0.28 0-0.5 0.23-0.5 0.5zm41 0c0 0.27 0.23 0.5 0.5 0.5 0.27 0 0.5-0.23 0.5-0.5 0-0.27-0.23-0.5-0.5-0.5-0.27 0-0.5 0.23-0.5 0.5z"/>
		<path id="Path 3" class="s3" d="m1 1.5c0 0.27 0.23 0.5 0.5 0.5 0.27 0 0.5-0.23 0.5-0.5 0-0.27-0.23-0.5-0.5-0.5-0.27 0-0.5 0.23-0.5 0.5zm45 0c0 0.27 0.23 0.5 0.5 0.5 0.27 0 0.5-0.23 0.5-0.5 0-0.27-0.23-0.5-0.5-0.5-0.27 0-0.5 0.23-0.5 0.5zm-45 45c0 0.27 0.23 0.5 0.5 0.5 0.27 0 0.5-0.23 0.5-0.5 0-0.27-0.23-0.5-0.5-0.5-0.27 0-0.5 0.23-0.5 0.5zm45 0c0 0.27 0.23 0.5 0.5 0.5 0.27 0 0.5-0.23 0.5-0.5 0-0.27-0.23-0.5-0.5-0.5-0.27 0-0.5 0.23-0.5 0.5z"/>
		<path id="Path 4" class="s0" d="m28.18 18.91c-0.65 1.15-0.95 2.32-0.68 2.59 0.27 0.27 0.95-0.4 1.5-1.5 0.55-1.1 0.86-2.26 0.68-2.59-0.17-0.32-0.85 0.36-1.5 1.5zm9.61-1.25c-0.34 0.46-1.11 2.08-1.71 3.59-1.02 2.6-0.96 2.7 1.17 1.89 1.24-0.48 2.39-1.71 2.56-2.75 0.18-1.04-0.07-2.27-0.54-2.73-0.46-0.46-1.13-0.46-1.48 0zm-27.85 1.34c0 0.82 0.35 1.16 0.78 0.75 0.43-0.41 0.43-1.09 0-1.5-0.43-0.41-0.78-0.07-0.78 0.75zm6.06 4.5c0 0.27 0.23 0.5 0.5 0.5 0.27 0 0.5-0.23 0.5-0.5 0-0.27-0.23-0.5-0.5-0.5-0.27 0-0.5 0.23-0.5 0.5zm4 6c0 0.27 0.23 0.5 0.5 0.5 0.27 0 0.5-0.23 0.5-0.5 0-0.27-0.23-0.5-0.5-0.5-0.27 0-0.5 0.23-0.5 0.5z"/>
		<path id="Path 5" class="s4" d="m11.94 18c0 0.82 0.35 1.16 0.78 0.75 0.43-0.41 0.43-1.09 0-1.5-0.43-0.41-0.78-0.07-0.78 0.75zm6.22 2c0 1.38 0.22 1.82 0.5 1 0.28-0.82 0.28-1.95 0-2.5-0.28-0.55-0.5 0.13-0.5 1.5zm-10.16-0.5c0 0.27 0.23 0.5 0.5 0.5 0.28 0 0.5-0.23 0.5-0.5 0-0.27-0.22-0.5-0.5-0.5-0.27 0-0.5 0.23-0.5 0.5zm22 0c0 0.27 0.23 0.5 0.5 0.5 0.27 0 0.5-0.23 0.5-0.5 0-0.27-0.23-0.5-0.5-0.5-0.27 0-0.5 0.23-0.5 0.5zm-4 1c0 0.27 0.23 0.5 0.5 0.5 0.27 0 0.5-0.23 0.5-0.5 0-0.27-0.23-0.5-0.5-0.5-0.27 0-0.5 0.23-0.5 0.5zm15 0c0 0.27 0.23 0.5 0.5 0.5 0.27 0 0.5-0.23 0.5-0.5 0-0.27-0.23-0.5-0.5-0.5-0.27 0-0.5 0.23-0.5 0.5zm-23.95 5c0.06 1.1 0.22 1.41 0.35 0.69 0.13-0.72 0.08-1.62-0.11-2-0.19-0.38-0.3 0.21-0.24 1.31zm15.89 0.5c0 0.82 0.35 1.16 0.78 0.75 0.43-0.41 0.43-1.09 0-1.5-0.43-0.41-0.78-0.07-0.78 0.75zm-8.94 0.5c0 0.27 0.23 0.5 0.5 0.5 0.27 0 0.5-0.23 0.5-0.5 0-0.27-0.23-0.5-0.5-0.5-0.27 0-0.5 0.23-0.5 0.5zm-12.06 1.5c0 0.82 0.35 1.16 0.78 0.75 0.43-0.41 0.43-1.09 0-1.5-0.43-0.41-0.78-0.07-0.78 0.75zm20.11 1.5c0.06 1.1 0.22 1.41 0.35 0.69 0.13-0.72 0.08-1.62-0.11-2-0.19-0.38-0.3 0.21-0.24 1.31zm-9.05 0c0 0.27 0.23 0.5 0.5 0.5 0.28 0 0.5-0.23 0.5-0.5 0-0.27-0.22-0.5-0.5-0.5-0.27 0-0.5 0.23-0.5 0.5zm2.25 1.22c0.41 0.43 1.05 0.44 1.42 0.03 0.36-0.41 0.03-0.76-0.75-0.78-0.78-0.01-1.08 0.32-0.67 0.75z"/>
		<path id="Path 6" class="s5" d="m12 16.5c0 0.27 0.22 0.5 0.5 0.5 0.28 0 0.5-0.23 0.5-0.5 0-0.27-0.22-0.5-0.5-0.5-0.28 0-0.5 0.23-0.5 0.5zm24 0c0 0.27 0.23 0.5 0.5 0.5 0.27 0 0.5-0.23 0.5-0.5 0-0.27-0.23-0.5-0.5-0.5-0.27 0-0.5 0.23-0.5 0.5zm-1 2c0 0.27 0.23 0.5 0.5 0.5 0.27 0 0.5-0.23 0.5-0.5 0-0.27-0.23-0.5-0.5-0.5-0.27 0-0.5 0.23-0.5 0.5zm-16 1c0 0.27 0.23 0.5 0.5 0.5 0.27 0 0.5-0.23 0.5-0.5 0-0.27-0.23-0.5-0.5-0.5-0.27 0-0.5 0.23-0.5 0.5zm4 0c0 0.27 0.23 0.5 0.5 0.5 0.27 0 0.5-0.23 0.5-0.5 0-0.27-0.23-0.5-0.5-0.5-0.27 0-0.5 0.23-0.5 0.5zm17 1c0 0.27 0.23 0.5 0.5 0.5 0.27 0 0.5-0.23 0.5-0.5 0-0.27-0.23-0.5-0.5-0.5-0.27 0-0.5 0.23-0.5 0.5zm-24 2c0 0.27 0.23 0.5 0.5 0.5 0.27 0 0.5-0.23 0.5-0.5 0-0.27-0.23-0.5-0.5-0.5-0.27 0-0.5 0.23-0.5 0.5zm-6 1c0 0.27 0.22 0.5 0.5 0.5 0.28 0 0.5-0.23 0.5-0.5 0-0.27-0.22-0.5-0.5-0.5-0.28 0-0.5 0.23-0.5 0.5zm29 0c0 0.27 0.23 0.5 0.5 0.5 0.27 0 0.5-0.23 0.5-0.5 0-0.27-0.23-0.5-0.5-0.5-0.27 0-0.5 0.23-0.5 0.5zm-25 1c0 0.27 0.22 0.5 0.5 0.5 0.28 0 0.5-0.23 0.5-0.5 0-0.27-0.22-0.5-0.5-0.5-0.28 0-0.5 0.23-0.5 0.5zm10.4 0.5c0.33 0.55 0.83 1 1.1 1 0.27 0 0.27-0.45 0-1-0.27-0.55-0.77-1-1.1-1-0.33 0-0.33 0.45 0 1zm10.6-0.5c0 0.27 0.23 0.5 0.5 0.5 0.27 0 0.5-0.23 0.5-0.5 0-0.27-0.23-0.5-0.5-0.5-0.27 0-0.5 0.23-0.5 0.5zm-21 2c0 0.27 0.22 0.5 0.5 0.5 0.28 0 0.5-0.23 0.5-0.5 0-0.27-0.22-0.5-0.5-0.5-0.28 0-0.5 0.23-0.5 0.5zm7.25 2.22c0.41 0.43 1.05 0.44 1.42 0.03 0.36-0.41 0.03-0.76-0.75-0.78-0.78-0.01-1.08 0.32-0.67 0.75zm-8.25 0.78c0 0.27 0.22 0.5 0.5 0.5 0.28 0 0.5-0.23 0.5-0.5 0-0.27-0.22-0.5-0.5-0.5-0.28 0-0.5 0.23-0.5 0.5zm6 0c0 0.27 0.23 0.5 0.5 0.5 0.27 0 0.5-0.23 0.5-0.5 0-0.27-0.23-0.5-0.5-0.5-0.27 0-0.5 0.23-0.5 0.5zm3 1c0 0.27 0.23 0.5 0.5 0.5 0.27 0 0.5-0.23 0.5-0.5 0-0.27-0.23-0.5-0.5-0.5-0.27 0-0.5 0.23-0.5 0.5zm-5 1c0 0.27 0.23 0.5 0.5 0.5 0.27 0 0.5-0.23 0.5-0.5 0-0.27-0.23-0.5-0.5-0.5-0.27 0-0.5 0.23-0.5 0.5zm9 0c0 0.27 0.23 0.5 0.5 0.5 0.27 0 0.5-0.23 0.5-0.5 0-0.27-0.23-0.5-0.5-0.5-0.27 0-0.5 0.23-0.5 0.5zm6 0c0 0.27 0.23 0.5 0.5 0.5 0.27 0 0.5-0.23 0.5-0.5 0-0.27-0.23-0.5-0.5-0.5-0.27 0-0.5 0.23-0.5 0.5z"/>
		<path id="Path 7" class="s6" d="m9.94 17c0 0.82 0.35 1.16 0.78 0.75 0.43-0.41 0.43-1.09 0-1.5-0.43-0.41-0.78-0.07-0.78 0.75zm18.31-0.28c0.41 0.43 1.05 0.44 1.42 0.03 0.36-0.41 0.03-0.76-0.75-0.78-0.78-0.01-1.08 0.32-0.67 0.75zm6.75-0.22c0 0.27 0.23 0.5 0.5 0.5 0.28 0 0.5-0.23 0.5-0.5 0-0.27-0.22-0.5-0.5-0.5-0.27 0-0.5 0.23-0.5 0.5zm2 0c0 0.27 0.23 0.5 0.5 0.5 0.28 0 0.5-0.23 0.5-0.5 0-0.27-0.22-0.5-0.5-0.5-0.27 0-0.5 0.23-0.5 0.5zm-24 1c0 0.27 0.23 0.5 0.5 0.5 0.28 0 0.5-0.23 0.5-0.5 0-0.27-0.22-0.5-0.5-0.5-0.27 0-0.5 0.23-0.5 0.5zm5 0c0 0.27 0.23 0.5 0.5 0.5 0.28 0 0.5-0.23 0.5-0.5 0-0.27-0.22-0.5-0.5-0.5-0.27 0-0.5 0.23-0.5 0.5zm18 2c0 0.27 0.23 0.5 0.5 0.5 0.28 0 0.5-0.23 0.5-0.5 0-0.27-0.22-0.5-0.5-0.5-0.27 0-0.5 0.23-0.5 0.5zm4 0c0 0.27 0.23 0.5 0.5 0.5 0.28 0 0.5-0.23 0.5-0.5 0-0.27-0.22-0.5-0.5-0.5-0.27 0-0.5 0.23-0.5 0.5zm-24 1c0 0.27 0.23 0.5 0.5 0.5 0.28 0 0.5-0.23 0.5-0.5 0-0.27-0.22-0.5-0.5-0.5-0.27 0-0.5 0.23-0.5 0.5zm7.3 0.74q-0.81 1.25 0.45 0.5c0.69-0.41 1.25-0.97 1.25-1.24 0-0.27-0.2-0.5-0.45-0.5-0.25 0-0.81 0.56-1.25 1.24zm3.95 1.48c0.41 0.43 1.05 0.44 1.42 0.03 0.36-0.41 0.03-0.76-0.75-0.78-0.78-0.01-1.08 0.32-0.67 0.75zm-18.25 0.78c0 0.27 0.23 0.5 0.5 0.5 0.28 0 0.5-0.23 0.5-0.5 0-0.27-0.22-0.5-0.5-0.5-0.27 0-0.5 0.23-0.5 0.5zm-1 2c0 0.27 0.23 0.5 0.5 0.5 0.28 0 0.5-0.23 0.5-0.5 0-0.27-0.22-0.5-0.5-0.5-0.27 0-0.5 0.23-0.5 0.5zm24 1c0 0.27 0.23 0.5 0.5 0.5 0.28 0 0.5-0.23 0.5-0.5 0-0.27-0.22-0.5-0.5-0.5-0.27 0-0.5 0.23-0.5 0.5zm-25 1c0 0.27 0.23 0.5 0.5 0.5 0.28 0 0.5-0.23 0.5-0.5 0-0.27-0.22-0.5-0.5-0.5-0.27 0-0.5 0.23-0.5 0.5zm13 1c0 0.27 0.23 0.5 0.5 0.5 0.28 0 0.5-0.23 0.5-0.5 0-0.27-0.22-0.5-0.5-0.5-0.27 0-0.5 0.23-0.5 0.5zm5 1c0 0.27 0.23 0.5 0.5 0.5 0.28 0 0.5-0.23 0.5-0.5 0-0.27-0.22-0.5-0.5-0.5-0.27 0-0.5 0.23-0.5 0.5zm6 0c0 0.27 0.23 0.5 0.5 0.5 0.28 0 0.5-0.23 0.5-0.5 0-0.27-0.22-0.5-0.5-0.5-0.27 0-0.5 0.23-0.5 0.5zm2 0c0 0.27 0.23 0.5 0.5 0.5 0.28 0 0.5-0.23 0.5-0.5 0-0.27-0.22-0.5-0.5-0.5-0.27 0-0.5 0.23-0.5 0.5z"/>
		<path id="Path 8" class="s7" d="m30 16.5c0 0.27 0.23 0.5 0.5 0.5 0.27 0 0.5-0.23 0.5-0.5 0-0.27-0.23-0.5-0.5-0.5-0.27 0-0.5 0.23-0.5 0.5zm7.64 0.25c-0.24 0.41 0.18 0.75 0.96 0.75 0.77 0 1.4-0.34 1.4-0.75 0-0.41-0.43-0.75-0.95-0.75-0.52 0-1.16 0.34-1.41 0.75zm-6.64 1.75c0 0.27 0.23 0.5 0.5 0.5 0.27 0 0.5-0.23 0.5-0.5 0-0.27-0.23-0.5-0.5-0.5-0.27 0-0.5 0.23-0.5 0.5zm-6.6 1.5c0.33 0.55 0.83 1 1.1 1 0.27 0 0.27-0.45 0-1-0.27-0.55-0.77-1-1.1-1-0.33 0-0.33 0.45 0 1zm4.6-0.5c0 0.27 0.23 0.5 0.5 0.5 0.27 0 0.5-0.23 0.5-0.5 0-0.27-0.23-0.5-0.5-0.5-0.27 0-0.5 0.23-0.5 0.5zm5 1c0 0.27 0.23 0.5 0.5 0.5 0.27 0 0.5-0.23 0.5-0.5 0-0.27-0.23-0.5-0.5-0.5-0.27 0-0.5 0.23-0.5 0.5zm-19 2c0 0.27 0.23 0.5 0.5 0.5 0.27 0 0.5-0.23 0.5-0.5 0-0.27-0.23-0.5-0.5-0.5-0.27 0-0.5 0.23-0.5 0.5zm9 0c0 0.27 0.23 0.5 0.5 0.5 0.27 0 0.5-0.23 0.5-0.5 0-0.27-0.23-0.5-0.5-0.5-0.27 0-0.5 0.23-0.5 0.5zm11 0c0 0.27 0.23 0.5 0.5 0.5 0.27 0 0.5-0.23 0.5-0.5 0-0.27-0.23-0.5-0.5-0.5-0.27 0-0.5 0.23-0.5 0.5zm-17 2c0 0.27 0.23 0.5 0.5 0.5 0.27 0 0.5-0.23 0.5-0.5 0-0.27-0.23-0.5-0.5-0.5-0.27 0-0.5 0.23-0.5 0.5zm18 0c0 0.27 0.23 0.5 0.5 0.5 0.27 0 0.5-0.23 0.5-0.5 0-0.27-0.23-0.5-0.5-0.5-0.27 0-0.5 0.23-0.5 0.5zm-20 1c0 0.27 0.23 0.5 0.5 0.5 0.27 0 0.5-0.23 0.5-0.5 0-0.27-0.23-0.5-0.5-0.5-0.27 0-0.5 0.23-0.5 0.5zm18 1c0 0.27 0.23 0.5 0.5 0.5 0.27 0 0.5-0.23 0.5-0.5 0-0.27-0.23-0.5-0.5-0.5-0.27 0-0.5 0.23-0.5 0.5zm-27.7 4.74q-0.81 1.25 0.45 0.5c0.69-0.41 1.25-0.97 1.25-1.24 0-0.27-0.2-0.5-0.45-0.5-0.25 0-0.81 0.56-1.25 1.24zm12.7-0.74c0 0.27 0.23 0.5 0.5 0.5 0.28 0 0.5-0.23 0.5-0.5 0-0.27-0.22-0.5-0.5-0.5-0.27 0-0.5 0.23-0.5 0.5z"/>
		<path id="Path 9" class="s8" d="m11 16.5c0 0.27 0.22 0.5 0.5 0.5 0.28 0 0.5-0.23 0.5-0.5 0-0.27-0.22-0.5-0.5-0.5-0.28 0-0.5 0.23-0.5 0.5zm17 1c0 0.27 0.23 0.5 0.5 0.5 0.27 0 0.5-0.23 0.5-0.5 0-0.27-0.23-0.5-0.5-0.5-0.27 0-0.5 0.23-0.5 0.5zm5.25 0.22c0.41 0.43 1.05 0.44 1.42 0.03 0.36-0.41 0.03-0.76-0.75-0.78-0.78-0.01-1.08 0.32-0.67 0.75zm6.75 0.78c0 0.27 0.23 0.5 0.5 0.5 0.27 0 0.5-0.23 0.5-0.5 0-0.27-0.23-0.5-0.5-0.5-0.27 0-0.5 0.23-0.5 0.5zm-29.45 2.5c-0.3 0.55-0.44 1.23-0.3 1.51 0.14 0.28 0.53-0.17 0.87-1 0.34-0.83 0.48-1.51 0.3-1.51-0.18 0-0.57 0.45-0.87 1zm6 0c-0.3 0.55-0.1 1 0.45 1 0.55 0 1-0.45 1-1 0-0.55-0.2-1-0.45-1-0.25 0-0.7 0.45-1 1zm1.45 2.5c0 0.27 0.23 0.5 0.5 0.5 0.27 0 0.5-0.23 0.5-0.5 0-0.27-0.23-0.5-0.5-0.5-0.27 0-0.5 0.23-0.5 0.5zm19 0c0 0.27 0.23 0.5 0.5 0.5 0.27 0 0.5-0.23 0.5-0.5 0-0.27-0.23-0.5-0.5-0.5-0.27 0-0.5 0.23-0.5 0.5zm-22 1c0 0.27 0.23 0.5 0.5 0.5 0.27 0 0.5-0.23 0.5-0.5 0-0.27-0.23-0.5-0.5-0.5-0.27 0-0.5 0.23-0.5 0.5zm19 1c0 0.27 0.23 0.5 0.5 0.5 0.27 0 0.5-0.23 0.5-0.5 0-0.27-0.23-0.5-0.5-0.5-0.27 0-0.5 0.23-0.5 0.5zm-18 1c0 0.27 0.23 0.5 0.5 0.5 0.27 0 0.5-0.23 0.5-0.5 0-0.27-0.23-0.5-0.5-0.5-0.27 0-0.5 0.23-0.5 0.5zm-10 4c0 0.27 0.23 0.5 0.5 0.5 0.28 0 0.5-0.23 0.5-0.5 0-0.27-0.22-0.5-0.5-0.5-0.27 0-0.5 0.23-0.5 0.5zm22.3 0.74q-0.81 1.25 0.45 0.5c0.69-0.41 1.25-0.97 1.25-1.24 0-0.27-0.2-0.5-0.45-0.5-0.25 0-0.81 0.56-1.25 1.24zm2.7-0.74c0 0.27 0.23 0.5 0.5 0.5 0.27 0 0.5-0.23 0.5-0.5 0-0.27-0.23-0.5-0.5-0.5-0.27 0-0.5 0.23-0.5 0.5z"/>
		<path id="Path 10" class="s9" d="m8.55 18c-0.3 0.55-0.1 1 0.45 1 0.55 0 1-0.45 1-1 0-0.55-0.2-1-0.45-1-0.25 0-0.7 0.45-1 1zm2.45 1.5c0 0.27 0.22 0.5 0.5 0.5 0.27 0 0.5-0.23 0.5-0.5 0-0.27-0.23-0.5-0.5-0.5-0.28 0-0.5 0.23-0.5 0.5zm1.58 1c-0.32 0.82-0.13 1.73 0.42 2 0.55 0.27 1-0.4 1-1.5 0-1.1-0.19-2-0.42-2-0.22 0-0.67 0.68-1 1.5zm4.42-1c0 0.27 0.23 0.5 0.5 0.5 0.27 0 0.5-0.23 0.5-0.5 0-0.27-0.23-0.5-0.5-0.5-0.27 0-0.5 0.23-0.5 0.5zm7 2c0 0.27 0.23 0.5 0.5 0.5 0.27 0 0.5-0.23 0.5-0.5 0-0.27-0.23-0.5-0.5-0.5-0.27 0-0.5 0.23-0.5 0.5zm-7 1c0 0.27 0.23 0.5 0.5 0.5 0.27 0 0.5-0.23 0.5-0.5 0-0.27-0.23-0.5-0.5-0.5-0.27 0-0.5 0.23-0.5 0.5zm16 2c0 0.27 0.23 0.5 0.5 0.5 0.27 0 0.5-0.23 0.5-0.5 0-0.27-0.23-0.5-0.5-0.5-0.27 0-0.5 0.23-0.5 0.5zm-9 3c0 0.27 0.23 0.5 0.5 0.5 0.27 0 0.5-0.23 0.5-0.5 0-0.27-0.23-0.5-0.5-0.5-0.27 0-0.5 0.23-0.5 0.5zm-17 2c0 0.27 0.22 0.5 0.5 0.5 0.27 0 0.5-0.23 0.5-0.5 0-0.27-0.23-0.5-0.5-0.5-0.28 0-0.5 0.23-0.5 0.5zm9.4 0.5c0.33 0.55 0.83 1 1.1 1 0.27 0 0.5-0.45 0.5-1 0-0.55-0.5-1-1.1-1-0.61 0-0.83 0.45-0.5 1z"/>
		<path id="Path 11" class="s10" d="m19 18.5c0 0.27 0.23 0.5 0.5 0.5 0.27 0 0.5-0.23 0.5-0.5 0-0.27-0.23-0.5-0.5-0.5-0.27 0-0.5 0.23-0.5 0.5zm8 1c0 0.27 0.23 0.5 0.5 0.5 0.27 0 0.5-0.23 0.5-0.5 0-0.27-0.23-0.5-0.5-0.5-0.27 0-0.5 0.23-0.5 0.5zm-15 1c0 0.27 0.22 0.5 0.5 0.5 0.28 0 0.5-0.23 0.5-0.5 0-0.27-0.22-0.5-0.5-0.5-0.28 0-0.5 0.23-0.5 0.5zm18 0c0 0.27 0.23 0.5 0.5 0.5 0.27 0 0.5-0.23 0.5-0.5 0-0.27-0.23-0.5-0.5-0.5-0.27 0-0.5 0.23-0.5 0.5zm-5 1c0 0.27 0.23 0.5 0.5 0.5 0.27 0 0.5-0.23 0.5-0.5 0-0.27-0.23-0.5-0.5-0.5-0.27 0-0.5 0.23-0.5 0.5zm10 0c0 0.27 0.23 0.5 0.5 0.5 0.27 0 0.5-0.23 0.5-0.5 0-0.27-0.23-0.5-0.5-0.5-0.27 0-0.5 0.23-0.5 0.5zm-22 2c0 0.27 0.22 0.5 0.5 0.5 0.28 0 0.5-0.23 0.5-0.5 0-0.27-0.22-0.5-0.5-0.5-0.28 0-0.5 0.23-0.5 0.5zm-4 2c0 0.27 0.22 0.5 0.5 0.5 0.28 0 0.5-0.23 0.5-0.5 0-0.27-0.22-0.5-0.5-0.5-0.28 0-0.5 0.23-0.5 0.5zm4 0c0 0.27 0.22 0.5 0.5 0.5 0.28 0 0.5-0.23 0.5-0.5 0-0.27-0.22-0.5-0.5-0.5-0.28 0-0.5 0.23-0.5 0.5zm-5.7 2.74q-0.81 1.25 0.45 0.5c0.69-0.41 1.25-0.97 1.25-1.24 0-0.27-0.2-0.5-0.45-0.5-0.25 0-0.81 0.56-1.25 1.24zm15.7-0.74c0 0.27 0.23 0.5 0.5 0.5 0.27 0 0.5-0.23 0.5-0.5 0-0.27-0.23-0.5-0.5-0.5-0.27 0-0.5 0.23-0.5 0.5zm-7 1c0 0.27 0.23 0.5 0.5 0.5 0.27 0 0.5-0.23 0.5-0.5 0-0.27-0.23-0.5-0.5-0.5-0.27 0-0.5 0.23-0.5 0.5zm-4 1c0 0.27 0.23 0.5 0.5 0.5 0.28 0 0.5-0.23 0.5-0.5 0-0.27-0.22-0.5-0.5-0.5-0.27 0-0.5 0.23-0.5 0.5zm9 1c0 0.27 0.23 0.5 0.5 0.5 0.27 0 0.5-0.23 0.5-0.5 0-0.27-0.23-0.5-0.5-0.5-0.27 0-0.5 0.23-0.5 0.5z"/>
		<path id="Path 12" class="s11" d="m27 17.5c0 0.27 0.23 0.5 0.5 0.5 0.27 0 0.5-0.23 0.5-0.5 0-0.27-0.23-0.5-0.5-0.5-0.27 0-0.5 0.23-0.5 0.5zm13.4 0.5c0.33 0.55 0.83 1 1.1 1 0.27 0 0.27-0.45 0-1-0.27-0.55-0.77-1-1.1-1-0.33 0-0.33 0.45 0 1zm-27.4 0.5c0 0.27 0.22 0.5 0.5 0.5 0.27 0 0.5-0.23 0.5-0.5 0-0.27-0.23-0.5-0.5-0.5-0.28 0-0.5 0.23-0.5 0.5zm15 3c0 0.27 0.22 0.5 0.5 0.5 0.27 0 0.5-0.23 0.5-0.5 0-0.27-0.23-0.5-0.5-0.5-0.28 0-0.5 0.23-0.5 0.5zm6 0c0 0.27 0.22 0.5 0.5 0.5 0.27 0 0.5-0.23 0.5-0.5 0-0.27-0.23-0.5-0.5-0.5-0.28 0-0.5 0.23-0.5 0.5zm-8 1c0 0.27 0.22 0.5 0.5 0.5 0.27 0 0.5-0.23 0.5-0.5 0-0.27-0.23-0.5-0.5-0.5-0.28 0-0.5 0.23-0.5 0.5zm13 0c0 0.27 0.22 0.5 0.5 0.5 0.27 0 0.5-0.23 0.5-0.5 0-0.27-0.23-0.5-0.5-0.5-0.28 0-0.5 0.23-0.5 0.5zm-26 2c0 0.27 0.22 0.5 0.5 0.5 0.27 0 0.5-0.23 0.5-0.5 0-0.27-0.23-0.5-0.5-0.5-0.28 0-0.5 0.23-0.5 0.5zm3 3c0 0.27 0.22 0.5 0.5 0.5 0.27 0 0.5-0.23 0.5-0.5 0-0.27-0.23-0.5-0.5-0.5-0.28 0-0.5 0.23-0.5 0.5zm0 3c0 0.27 0.22 0.5 0.5 0.5 0.27 0 0.5-0.23 0.5-0.5 0-0.27-0.23-0.5-0.5-0.5-0.28 0-0.5 0.23-0.5 0.5zm4 0c0 0.27 0.22 0.5 0.5 0.5 0.27 0 0.5-0.23 0.5-0.5 0-0.27-0.23-0.5-0.5-0.5-0.28 0-0.5 0.23-0.5 0.5zm4 0c0 0.27 0.22 0.5 0.5 0.5 0.27 0 0.5-0.23 0.5-0.5 0-0.27-0.23-0.5-0.5-0.5-0.28 0-0.5 0.23-0.5 0.5zm3 1c0 0.27 0.22 0.5 0.5 0.5 0.27 0 0.5-0.23 0.5-0.5 0-0.27-0.23-0.5-0.5-0.5-0.28 0-0.5 0.23-0.5 0.5z"/>
		<path id="Path 13" class="s12" d="m30 17.5c0 0.27 0.23 0.5 0.5 0.5 0.27 0 0.5-0.23 0.5-0.5 0-0.27-0.23-0.5-0.5-0.5-0.27 0-0.5 0.23-0.5 0.5zm6 1c0 0.27 0.23 0.5 0.5 0.5 0.27 0 0.5-0.23 0.5-0.5 0-0.27-0.23-0.5-0.5-0.5-0.27 0-0.5 0.23-0.5 0.5zm-10 1c0 0.27 0.23 0.5 0.5 0.5 0.27 0 0.5-0.23 0.5-0.5 0-0.27-0.23-0.5-0.5-0.5-0.27 0-0.5 0.23-0.5 0.5zm0 2c0 0.27 0.23 0.5 0.5 0.5 0.27 0 0.5-0.23 0.5-0.5 0-0.27-0.23-0.5-0.5-0.5-0.27 0-0.5 0.23-0.5 0.5zm14.3 0.74q-0.81 1.25 0.45 0.5c0.69-0.41 1.25-0.97 1.25-1.24 0-0.27-0.2-0.5-0.45-0.5-0.25 0-0.81 0.56-1.25 1.24zm-6.3 0.26c0 0.27 0.23 0.5 0.5 0.5 0.27 0 0.5-0.23 0.5-0.5 0-0.27-0.23-0.5-0.5-0.5-0.27 0-0.5 0.23-0.5 0.5zm-22 2c0 0.27 0.22 0.5 0.5 0.5 0.27 0 0.5-0.23 0.5-0.5 0-0.27-0.23-0.5-0.5-0.5-0.28 0-0.5 0.23-0.5 0.5zm22 0c0 0.27 0.23 0.5 0.5 0.5 0.27 0 0.5-0.23 0.5-0.5 0-0.27-0.23-0.5-0.5-0.5-0.27 0-0.5 0.23-0.5 0.5zm-10 1c0 0.27 0.23 0.5 0.5 0.5 0.27 0 0.5-0.23 0.5-0.5 0-0.27-0.23-0.5-0.5-0.5-0.27 0-0.5 0.23-0.5 0.5zm-16 1c0 0.27 0.22 0.5 0.5 0.5 0.27 0 0.5-0.23 0.5-0.5 0-0.27-0.23-0.5-0.5-0.5-0.28 0-0.5 0.23-0.5 0.5zm14 3c0 0.27 0.23 0.5 0.5 0.5 0.27 0 0.5-0.23 0.5-0.5 0-0.27-0.23-0.5-0.5-0.5-0.27 0-0.5 0.23-0.5 0.5zm6 1c0 0.27 0.23 0.5 0.5 0.5 0.27 0 0.5-0.23 0.5-0.5 0-0.27-0.23-0.5-0.5-0.5-0.27 0-0.5 0.23-0.5 0.5z"/>
		<path id="Path 14" class="s13" d="m19 16.5c0 0.27 0.23 0.5 0.5 0.5 0.27 0 0.5-0.23 0.5-0.5 0-0.27-0.23-0.5-0.5-0.5-0.27 0-0.5 0.23-0.5 0.5zm7 2c0 0.27 0.23 0.5 0.5 0.5 0.27 0 0.5-0.23 0.5-0.5 0-0.27-0.23-0.5-0.5-0.5-0.27 0-0.5 0.23-0.5 0.5zm-16.6 1.5c0.33 0.55 0.83 1 1.1 1 0.28 0 0.28-0.45 0-1-0.27-0.55-0.77-1-1.1-1-0.33 0-0.33 0.45 0 1zm31.6 2.5c0 0.27 0.23 0.5 0.5 0.5 0.27 0 0.5-0.23 0.5-0.5 0-0.27-0.23-0.5-0.5-0.5-0.27 0-0.5 0.23-0.5 0.5zm-8 1c0 0.27 0.23 0.5 0.5 0.5 0.27 0 0.5-0.23 0.5-0.5 0-0.27-0.23-0.5-0.5-0.5-0.27 0-0.5 0.23-0.5 0.5zm-14 5c0 0.27 0.23 0.5 0.5 0.5 0.27 0 0.5-0.23 0.5-0.5 0-0.27-0.23-0.5-0.5-0.5-0.27 0-0.5 0.23-0.5 0.5z"/>
		<path id="Path 15" class="s14" d="m19 17.5c0 0.27 0.23 0.5 0.5 0.5 0.27 0 0.5-0.23 0.5-0.5 0-0.27-0.23-0.5-0.5-0.5-0.27 0-0.5 0.23-0.5 0.5zm-11 3c0 0.27 0.22 0.5 0.5 0.5 0.28 0 0.5-0.23 0.5-0.5 0-0.27-0.22-0.5-0.5-0.5-0.28 0-0.5 0.23-0.5 0.5zm15 0c0 0.27 0.23 0.5 0.5 0.5 0.27 0 0.5-0.23 0.5-0.5 0-0.27-0.23-0.5-0.5-0.5-0.27 0-0.5 0.23-0.5 0.5zm6 1c0 0.27 0.23 0.5 0.5 0.5 0.27 0 0.5-0.23 0.5-0.5 0-0.27-0.23-0.5-0.5-0.5-0.27 0-0.5 0.23-0.5 0.5zm-11 1c0 0.27 0.23 0.5 0.5 0.5 0.27 0 0.5-0.23 0.5-0.5 0-0.27-0.23-0.5-0.5-0.5-0.27 0-0.5 0.23-0.5 0.5zm-6 1c0 0.27 0.22 0.5 0.5 0.5 0.28 0 0.5-0.23 0.5-0.5 0-0.27-0.22-0.5-0.5-0.5-0.28 0-0.5 0.23-0.5 0.5zm3 0c0 0.27 0.23 0.5 0.5 0.5 0.27 0 0.5-0.23 0.5-0.5 0-0.27-0.23-0.5-0.5-0.5-0.27 0-0.5 0.23-0.5 0.5zm23 0c0 0.27 0.23 0.5 0.5 0.5 0.27 0 0.5-0.23 0.5-0.5 0-0.27-0.23-0.5-0.5-0.5-0.27 0-0.5 0.23-0.5 0.5zm-29 1c0 0.27 0.22 0.5 0.5 0.5 0.28 0 0.5-0.23 0.5-0.5 0-0.27-0.22-0.5-0.5-0.5-0.28 0-0.5 0.23-0.5 0.5zm4.3 1.74q-0.81 1.25 0.45 0.5c0.69-0.41 1.25-0.97 1.25-1.24 0-0.27-0.2-0.5-0.45-0.5-0.25 0-0.81 0.56-1.25 1.24zm18.7 1.26c0 0.27 0.23 0.5 0.5 0.5 0.27 0 0.5-0.23 0.5-0.5 0-0.27-0.23-0.5-0.5-0.5-0.27 0-0.5 0.23-0.5 0.5z"/>
		<path id="Path 16" class="s15" d="m36 17.5c0 0.27 0.23 0.5 0.5 0.5 0.27 0 0.5-0.23 0.5-0.5 0-0.27-0.23-0.5-0.5-0.5-0.27 0-0.5 0.23-0.5 0.5zm-9 1c0 0.27 0.23 0.5 0.5 0.5 0.27 0 0.5-0.23 0.5-0.5 0-0.27-0.23-0.5-0.5-0.5-0.27 0-0.5 0.23-0.5 0.5zm3 0c0 0.27 0.23 0.5 0.5 0.5 0.27 0 0.5-0.23 0.5-0.5 0-0.27-0.23-0.5-0.5-0.5-0.27 0-0.5 0.23-0.5 0.5zm4.94 1.5c0 0.82 0.35 1.16 0.78 0.75 0.43-0.41 0.43-1.09 0-1.5-0.43-0.41-0.78-0.07-0.78 0.75zm6.06-0.5c0 0.27 0.23 0.5 0.5 0.5 0.27 0 0.5-0.23 0.5-0.5 0-0.27-0.23-0.5-0.5-0.5-0.27 0-0.5 0.23-0.5 0.5zm-12 1c0 0.27 0.23 0.5 0.5 0.5 0.27 0 0.5-0.23 0.5-0.5 0-0.27-0.23-0.5-0.5-0.5-0.27 0-0.5 0.23-0.5 0.5zm-4.06 2.5c0 0.82 0.35 1.16 0.78 0.75 0.43-0.41 0.43-1.09 0-1.5-0.43-0.41-0.78-0.07-0.78 0.75zm-7.94 0.5c0 0.27 0.23 0.5 0.5 0.5 0.27 0 0.5-0.23 0.5-0.5 0-0.27-0.23-0.5-0.5-0.5-0.27 0-0.5 0.23-0.5 0.5zm17 0c0 0.27 0.23 0.5 0.5 0.5 0.27 0 0.5-0.23 0.5-0.5 0-0.27-0.23-0.5-0.5-0.5-0.27 0-0.5 0.23-0.5 0.5zm-22 2.5c0 0.55 0.45 1.23 1 1.5 0.55 0.27 0.81-0.18 0.57-1-0.23-0.82-0.68-1.5-1-1.5-0.31 0-0.57 0.45-0.57 1zm5 1.5c0 0.27 0.23 0.5 0.5 0.5 0.27 0 0.5-0.23 0.5-0.5 0-0.27-0.23-0.5-0.5-0.5-0.27 0-0.5 0.23-0.5 0.5zm16 0c0 0.27 0.23 0.5 0.5 0.5 0.27 0 0.5-0.23 0.5-0.5 0-0.27-0.23-0.5-0.5-0.5-0.27 0-0.5 0.23-0.5 0.5zm-10 1c0 0.27 0.23 0.5 0.5 0.5 0.27 0 0.5-0.23 0.5-0.5 0-0.27-0.23-0.5-0.5-0.5-0.27 0-0.5 0.23-0.5 0.5zm4 2c0 0.27 0.23 0.5 0.5 0.5 0.27 0 0.5-0.23 0.5-0.5 0-0.27-0.23-0.5-0.5-0.5-0.27 0-0.5 0.23-0.5 0.5z"/>
		<path id="Path 17" class="s16" d="m12 19.5c0 0.27 0.22 0.5 0.5 0.5 0.28 0 0.5-0.23 0.5-0.5 0-0.27-0.22-0.5-0.5-0.5-0.28 0-0.5 0.23-0.5 0.5zm28 2c0 0.27 0.23 0.5 0.5 0.5 0.27 0 0.5-0.23 0.5-0.5 0-0.27-0.23-0.5-0.5-0.5-0.27 0-0.5 0.23-0.5 0.5zm-28 1c0 0.27 0.22 0.5 0.5 0.5 0.28 0 0.5-0.23 0.5-0.5 0-0.27-0.22-0.5-0.5-0.5-0.28 0-0.5 0.23-0.5 0.5zm13 2c0 0.27 0.23 0.5 0.5 0.5 0.27 0 0.5-0.23 0.5-0.5 0-0.27-0.23-0.5-0.5-0.5-0.27 0-0.5 0.23-0.5 0.5zm-12 4c0 0.27 0.22 0.5 0.5 0.5 0.28 0 0.5-0.23 0.5-0.5 0-0.27-0.22-0.5-0.5-0.5-0.28 0-0.5 0.23-0.5 0.5zm4 0c0 0.27 0.23 0.5 0.5 0.5 0.27 0 0.5-0.23 0.5-0.5 0-0.27-0.23-0.5-0.5-0.5-0.27 0-0.5 0.23-0.5 0.5zm16 0c0 0.27 0.23 0.5 0.5 0.5 0.27 0 0.5-0.23 0.5-0.5 0-0.27-0.23-0.5-0.5-0.5-0.27 0-0.5 0.23-0.5 0.5zm-9 1c0 0.27 0.23 0.5 0.5 0.5 0.27 0 0.5-0.23 0.5-0.5 0-0.27-0.23-0.5-0.5-0.5-0.27 0-0.5 0.23-0.5 0.5z"/>
		<path id="Path 18" class="s17" d="m34 16.5c0 0.27 0.23 0.5 0.5 0.5 0.27 0 0.5-0.23 0.5-0.5 0-0.27-0.23-0.5-0.5-0.5-0.27 0-0.5 0.23-0.5 0.5zm-23 2c0 0.27 0.22 0.5 0.5 0.5 0.28 0 0.5-0.23 0.5-0.5 0-0.27-0.22-0.5-0.5-0.5-0.28 0-0.5 0.23-0.5 0.5zm8 2c0 0.27 0.23 0.5 0.5 0.5 0.27 0 0.5-0.23 0.5-0.5 0-0.27-0.23-0.5-0.5-0.5-0.27 0-0.5 0.23-0.5 0.5zm-11 8c0 0.27 0.22 0.5 0.5 0.5 0.28 0 0.5-0.23 0.5-0.5 0-0.27-0.22-0.5-0.5-0.5-0.28 0-0.5 0.23-0.5 0.5zm13 1c0 0.27 0.23 0.5 0.5 0.5 0.27 0 0.5-0.23 0.5-0.5 0-0.27-0.23-0.5-0.5-0.5-0.27 0-0.5 0.23-0.5 0.5zm10 2c0 0.27 0.23 0.5 0.5 0.5 0.27 0 0.5-0.23 0.5-0.5 0-0.27-0.23-0.5-0.5-0.5-0.27 0-0.5 0.23-0.5 0.5z"/>
		<path id="Path 19" class="s18" d="m11 17.5c0 0.27 0.22 0.5 0.5 0.5 0.28 0 0.5-0.23 0.5-0.5 0-0.27-0.22-0.5-0.5-0.5-0.28 0-0.5 0.23-0.5 0.5zm24 0c0 0.27 0.23 0.5 0.5 0.5 0.27 0 0.5-0.23 0.5-0.5 0-0.27-0.23-0.5-0.5-0.5-0.27 0-0.5 0.23-0.5 0.5zm1 6c0 0.27 0.23 0.5 0.5 0.5 0.27 0 0.5-0.23 0.5-0.5 0-0.27-0.23-0.5-0.5-0.5-0.27 0-0.5 0.23-0.5 0.5zm-20 1c0 0.27 0.23 0.5 0.5 0.5 0.27 0 0.5-0.23 0.5-0.5 0-0.27-0.23-0.5-0.5-0.5-0.27 0-0.5 0.23-0.5 0.5zm7 2c0 0.27 0.23 0.5 0.5 0.5 0.27 0 0.5-0.23 0.5-0.5 0-0.27-0.23-0.5-0.5-0.5-0.27 0-0.5 0.23-0.5 0.5zm-7 5c0 0.27 0.23 0.5 0.5 0.5 0.27 0 0.5-0.23 0.5-0.5 0-0.27-0.23-0.5-0.5-0.5-0.27 0-0.5 0.23-0.5 0.5z"/>
	</g>
</svg>